<svg xmlns="http://www.w3.org/2000/svg" viewBox="0 0 32 32">
	<path d="M1.854 1.146a.5.5 0 1 0-.708.708L15.293 16 1.155 30.138a.5.5 0 1 0 .707.707L16 16.707l14.138 14.138a.5.5 0 1 0 .707-.707L16.707 16 30.854 1.854a.5.5 0 0 0-.708-.708L16 15.293 1.854 1.146Z"/><path d="M1.146 1.146.793.793l.353.353Zm.708 0 .353-.353-.353.353Zm-.708.708-.353.353.353-.353ZM15.293 16l.353.354L16 16l-.354-.354-.353.354ZM1.155 30.138l.354.353-.354-.353Zm0 .707.354-.354-.354.354Zm.707 0-.353-.354.353.354ZM16 16.707l.354-.353L16 16l-.354.354.354.353Zm14.138 14.138.353-.354-.353.354Zm.707 0-.354-.354.354.354Zm0-.707-.354.353.354-.353ZM16.707 16l-.353-.354L16 16l.354.354.353-.354ZM30.854 1.854l.353.353-.353-.353Zm0-.708.353-.353-.353.353Zm-.708 0-.353-.353.353.353ZM16 15.293l-.354.353L16 16l.354-.354-.354-.353ZM1.5 1.5l.707-.707a1 1 0 0 0-1.414 0L1.5 1.5Zm0 0L.793.793a1 1 0 0 0 0 1.414L1.5 1.5Zm14.146 14.146L1.5 1.5l-.707.707 14.146 14.147.707-.708Zm-.707 0L.802 29.784l.707.707 14.137-14.137-.707-.708ZM.802 29.784a1 1 0 0 0 0 1.415l.707-.708-.707-.707Zm0 1.415a1 1 0 0 0 1.414 0l-.707-.708-.707.707Zm1.414 0L16.354 17.06l-.708-.707L1.51 30.49l.707.707Zm28.275-.708L16.354 16.354l-.708.707 14.138 14.137.707-.707Zm0 0-.707.707a1 1 0 0 0 1.415 0l-.708-.707Zm0 0 .707.707a1 1 0 0 0 0-1.414l-.707.707ZM16.354 16.354 30.49 30.49l.707-.707-14.137-14.138-.707.708Zm.707 0L31.207 2.207 30.5 1.5 16.354 15.646l.707.708ZM31.207 2.207a1 1 0 0 0 0-1.414L30.5 1.5l.707.707Zm0-1.414a1 1 0 0 0-1.414 0l.707.707.707-.707Zm-1.414 0L15.646 14.939l.708.707L30.5 1.5l-.707-.707ZM1.5 1.5l14.146 14.146.708-.707L2.207.793 1.5 1.5Z"/>
</svg>