<svg xmlns="http://www.w3.org/2000/svg" xmlns:xlink="http://www.w3.org/1999/xlink">

	<symbol id="surrender" viewBox="0 0 24 24">
		<path d="M1,24c-.552,0-1-.447-1-1V4C0,1.794,1.794,0,4,0H21.998c1.6-.055,2.604,1.958,1.598,3.203l-3.237,4.297,3.237,4.297c1.007,1.245,.003,3.258-1.598,3.203H2v8c0,.553-.448,1-1,1Z"/>
	</symbol>

	<symbol id="zero-icon" viewBox="0 0 24 24" stroke-width="2" stroke-linecap="round" stroke-linejoin="round">
		<circle cx="12" cy="12" r="7" fill="none" />
	</symbol>

	<symbol id="x-icon" viewBox="0 0 24 24" stroke-width="2" stroke-linecap="round" stroke-linejoin="round">
		<line x1="18" y1="6" x2="6" y2="18" />
		<line x1="6" y1="6" x2="18" y2="18" />
	</symbol>

	<symbol id="google-logo" fill="none" viewBox="0 0 256 262">
		<path fill="#4285F4" d="M255.878 133.451c0-10.734-.871-18.567-2.756-26.69H130.55v48.448h71.947c-1.45 12.04-9.283 30.172-26.69 42.356l-.244 1.622 38.755 30.023 2.685.268c24.659-22.774 38.875-56.282 38.875-96.027"/>
		<path fill="#34A853" d="M130.55 261.1c35.248 0 64.839-11.605 86.453-31.622l-41.196-31.913c-11.024 7.688-25.82 13.055-45.257 13.055-34.523 0-63.824-22.773-74.269-54.25l-1.531.13-40.298 31.187-.527 1.465C35.393 231.798 79.49 261.1 130.55 261.1"/>
		<path fill="#FBBC05" d="M56.281 156.37c-2.756-8.123-4.351-16.827-4.351-25.82 0-8.994 1.595-17.697 4.206-25.82l-.073-1.73L15.26 71.312l-1.335.635C5.077 89.644 0 109.517 0 130.55s5.077 40.905 13.925 58.602l42.356-32.782"/>
		<path fill="#EB4335" d="M130.55 50.479c24.514 0 41.05 10.589 50.479 19.438l36.844-35.974C195.245 12.91 165.798 0 130.55 0 79.49 0 35.393 29.301 13.925 71.947l42.211 32.783c10.59-31.477 39.891-54.251 74.414-54.251" />
	</symbol>

	<symbol id="arrow-left" viewBox="0 0 24 24">
		<g id="_01_align_center" data-name="01 align center">
			<path d="M16.752,23.994,6.879,14.121a3,3,0,0,1,0-4.242L16.746.012,18.16,1.426,8.293,11.293a1,1,0,0,0,0,1.414l9.873,9.873Z"/>
		</g>
	</symbol>

	<symbol id="arrow-right" viewBox="0 0 24 24">
		<g id="_01_align_center" data-name="01 align center">
			<path d="M7.412,24,6,22.588l9.881-9.881a1,1,0,0,0,0-1.414L6.017,1.431,7.431.017l9.862,9.862a3,3,0,0,1,0,4.242Z"/>
		</g>
	</symbol>
	
	<symbol id="replay" viewBox="0 0 300.003 300.003">
		<g>
			<g>
				<path d="M150.005,0C67.164,0,0.001,67.159,0.001,150c0,82.838,67.162,150.003,150.003,150.003S300.002,232.838,300.002,150
					C300.002,67.159,232.844,0,150.005,0z M230.091,172.444c-9.921,37.083-43.801,64.477-83.969,64.477
					c-47.93,0-86.923-38.99-86.923-86.923s38.99-86.92,86.923-86.92c21.906,0,41.931,8.157,57.228,21.579l-13.637,23.623
					c-11-11.487-26.468-18.664-43.594-18.664c-33.294,0-60.38,27.088-60.38,60.38c0,33.294,27.085,60.38,60.38,60.38
					c25.363,0,47.113-15.728,56.038-37.937h-20.765l36.168-62.636l36.166,62.641H230.091z"/>
			</g>
		</g>
	</symbol>
	
</svg>
