<svg xmlns="http://www.w3.org/2000/svg" xmlns:xlink="http://www.w3.org/1999/xlink">

	<symbol id="surrender" viewBox="0 0 24 24">
		<path d="M1,24c-.552,0-1-.447-1-1V4C0,1.794,1.794,0,4,0H21.998c1.6-.055,2.604,1.958,1.598,3.203l-3.237,4.297,3.237,4.297c1.007,1.245,.003,3.258-1.598,3.203H2v8c0,.553-.448,1-1,1Z"/>
	</symbol>

	<symbol id="zero-icon" viewBox="0 0 24 24" stroke-width="2" stroke-linecap="round" stroke-linejoin="round">
		<circle cx="12" cy="12" r="7" fill="none" />
	</symbol>

	<symbol id="x-icon" viewBox="0 0 24 24" stroke-width="2" stroke-linecap="round" stroke-linejoin="round">
		<line x1="18" y1="6" x2="6" y2="18" />
		<line x1="6" y1="6" x2="18" y2="18" />
	</symbol>

	<symbol id="google-logo" fill="none" viewBox="0 0 256 262">
		<path fill="#4285F4" d="M255.878 133.451c0-10.734-.871-18.567-2.756-26.69H130.55v48.448h71.947c-1.45 12.04-9.283 30.172-26.69 42.356l-.244 1.622 38.755 30.023 2.685.268c24.659-22.774 38.875-56.282 38.875-96.027"/>
		<path fill="#34A853" d="M130.55 261.1c35.248 0 64.839-11.605 86.453-31.622l-41.196-31.913c-11.024 7.688-25.82 13.055-45.257 13.055-34.523 0-63.824-22.773-74.269-54.25l-1.531.13-40.298 31.187-.527 1.465C35.393 231.798 79.49 261.1 130.55 261.1"/>
		<path fill="#FBBC05" d="M56.281 156.37c-2.756-8.123-4.351-16.827-4.351-25.82 0-8.994 1.595-17.697 4.206-25.82l-.073-1.73L15.26 71.312l-1.335.635C5.077 89.644 0 109.517 0 130.55s5.077 40.905 13.925 58.602l42.356-32.782"/>
		<path fill="#EB4335" d="M130.55 50.479c24.514 0 41.05 10.589 50.479 19.438l36.844-35.974C195.245 12.91 165.798 0 130.55 0 79.49 0 35.393 29.301 13.925 71.947l42.211 32.783c10.59-31.477 39.891-54.251 74.414-54.251" />
	</symbol>
</svg>