<svg xmlns="http://www.w3.org/2000/svg" xmlns:xlink="http://www.w3.org/1999/xlink"><symbol id="CLOSE_ICON" viewBox="0 0 32 32"><path d="M1.854 1.146a.5.5 0 10-.708.708L15.293 16 1.155 30.138a.5.5 0 10.707.707L16 16.707l14.138 14.138a.5.5 0 10.707-.707L16.707 16 30.854 1.854a.5.5 0 00-.708-.708L16 15.293 1.854 1.146z"/><path d="M1.146 1.146L.793.793l.353.353zm.708 0l.353-.353-.353.353zm-.708.708l-.353.353.353-.353zM15.293 16l.353.354L16 16l-.354-.354-.353.354zM1.155 30.138l.354.353-.354-.353zm0 .707l.354-.354-.354.354zm.707 0l-.353-.354.353.354zM16 16.707l.354-.353L16 16l-.354.354.354.353zm14.138 14.138l.353-.354-.353.354zm.707 0l-.354-.354.354.354zm0-.707l-.354.353.354-.353zM16.707 16l-.353-.354L16 16l.354.354.353-.354zM30.854 1.854l.353.353-.353-.353zm0-.708l.353-.353-.353.353zm-.708 0l-.353-.353.353.353zM16 15.293l-.354.353L16 16l.354-.354-.354-.353zM1.5 1.5l.707-.707a1 1 0 00-1.414 0L1.5 1.5zm0 0L.793.793a1 1 0 000 1.414L1.5 1.5zm14.146 14.146L1.5 1.5l-.707.707 14.146 14.147.707-.708zm-.707 0L.802 29.784l.707.707 14.137-14.137-.707-.708zM.802 29.784a1 1 0 000 1.415l.707-.708-.707-.707zm0 1.415a1 1 0 001.414 0l-.707-.708-.707.707zm1.414 0L16.354 17.06l-.708-.707L1.51 30.49l.707.707zm28.275-.708L16.354 16.354l-.708.707 14.138 14.137.707-.707zm0 0l-.707.707a1 1 0 001.415 0l-.708-.707zm0 0l.707.707a1 1 0 000-1.414l-.707.707zM16.354 16.354L30.49 30.49l.707-.707L17.06 15.645l-.707.708zm.707 0L31.207 2.207 30.5 1.5 16.354 15.646l.707.708zM31.207 2.207a1 1 0 000-1.414L30.5 1.5l.707.707zm0-1.414a1 1 0 00-1.414 0l.707.707.707-.707zm-1.414 0L15.646 14.939l.708.707L30.5 1.5l-.707-.707zM1.5 1.5l14.146 14.146.708-.707L2.207.793 1.5 1.5z"/></symbol><symbol id="GOOGLE_LOGO" viewBox="0 0 256 262" preserveAspectRatio="xMidYMid"><path d="M255.878 133.451c0-10.734-.871-18.567-2.756-26.69H130.55v48.448h71.947c-1.45 12.04-9.283 30.172-26.69 42.356l-.244 1.622 38.755 30.023 2.685.268c24.659-22.774 38.875-56.282 38.875-96.027"/><path d="M130.55 261.1c35.248 0 64.839-11.605 86.453-31.622l-41.196-31.913c-11.024 7.688-25.82 13.055-45.257 13.055-34.523 0-63.824-22.773-74.269-54.25l-1.531.13-40.298 31.187-.527 1.465C35.393 231.798 79.49 261.1 130.55 261.1"/><path d="M56.281 156.37c-2.756-8.123-4.351-16.827-4.351-25.82 0-8.994 1.595-17.697 4.206-25.82l-.073-1.73L15.26 71.312l-1.335.635C5.077 89.644 0 109.517 0 130.55s5.077 40.905 13.925 58.602l42.356-32.782"/><path d="M130.55 50.479c24.514 0 41.05 10.589 50.479 19.438l36.844-35.974C195.245 12.91 165.798 0 130.55 0 79.49 0 35.393 29.301 13.925 71.947l42.211 32.783c10.59-31.477 39.891-54.251 74.414-54.251"/></symbol><symbol id="O_ICON" viewBox="0 0 24 24"><g stroke-width="2" stroke-linecap="round" stroke-linejoin="round"><circle cx="12" cy="12" r="10"/></g></symbol><symbol id="SURRENDER" viewBox="0 0 24 24"><path d="M1 24a1 1 0 01-1-1V4c0-2.206 1.794-4 4-4h17.998c1.6-.055 2.604 1.958 1.598 3.203L20.359 7.5l3.237 4.297c1.007 1.245.003 3.258-1.598 3.203H2v8a1 1 0 01-1 1z"/></symbol><symbol id="X_ICON" viewBox="0 0 24 24"><g stroke-width="2" stroke-linecap="round" stroke-linejoin="round"><path d="M18 6L6 18M6 6l12 12"/></g></symbol></svg>